<?xml version="1.0" encoding="utf-8"?>
<!-- Generator: Adobe Illustrator 23.1.0, SVG Export Plug-In . SVG Version: 6.00 Build 0)  -->
<svg version="1.1" id="ab47acfe-844d-4101-aa7b-df38aa50dbe4"
	 xmlns="http://www.w3.org/2000/svg" xmlns:xlink="http://www.w3.org/1999/xlink" x="0px" y="0px" viewBox="0 0 971.1 628.4"
	 style="enable-background:new 0 0 971.1 628.4;" xml:space="preserve">
<style type="text/css">
	.st0{fill:#CACACA;}
	.st1{fill:#F2F2F2;}
	.st2{fill:#E6E6E6;}
	.st3{fill:#2F2E41;}
	.st4{fill:#FFB8B8;}
	.st5{fill:#0D6EFD;}
	.st6{fill:#3F3D56;}
	.st7{fill:#F1F1F1;}
	.st8{fill:#E5E5E5;}
	.st9{fill:#FFFFFF;}
	.st10{fill:#6C63FF;}
	.st11{fill:#CCCCCC;}
	.st12{fill:#FF6583;}
	.st13{fill:#9F616A;}
	.st14{fill:#CBCBCB;}
</style>
<g>
	<path class="st7" d="M618.7,589.9v-72.3C618.7,517.5,646.9,568.8,618.7,589.9z"/>
	<path class="st7" d="M620.4,589.9L567.2,541C567.2,541,624,554.9,620.4,589.9z"/>
	<rect id="f54375ad-557d-4249-95e2-413e25c77bd8" x="80.9" y="44.1" class="st8" width="841.8" height="399.5"/>
	<rect id="eb84611c-d49d-4ce2-b538-4fee0a7e188d" x="105" y="78.4" class="st9" width="793.7" height="333.3"/>
	<rect id="a33b5263-04c3-449f-a8ad-1420252c1e48" x="80.5" y="21" class="st10" width="841.8" height="35.8"/>
	<circle id="a01a8c4b-bf8b-4728-9381-d6cbaed15ee5" class="st9" cx="107.1" cy="38.8" r="6.6"/>
	<circle id="a70f271b-ee75-4447-9507-72af025f0784" class="st9" cx="132.3" cy="38.8" r="6.6"/>
	<circle id="b6ae4294-4107-4abd-ba05-1d458fcbc8d7" class="st9" cx="157.4" cy="38.8" r="6.6"/>
	<path id="a98f5d70-28fc-4129-b4f3-463d07786f2f" class="st6" d="M235,154.2c-1.8,0-3.3,1.5-3.3,3.3s1.5,3.3,3.3,3.3l0,0h89.3
		c1.8,0,3.3-1.5,3.3-3.3s-1.5-3.3-3.3-3.3H235z"/>
	<path id="a5717240-4d8d-4c71-83bc-6deeb889f166" class="st11" d="M184.5,199.2c-1.8,0-3.3,1.5-3.3,3.3s1.5,3.3,3.3,3.3h190.3
		c1.8,0,3.3-1.5,3.3-3.3s-1.5-3.3-3.3-3.3H184.5z"/>
	<path id="f9c6f13d-6e3a-4758-9844-a0f5d5c969ce" class="st11" d="M184.5,225.2c-1.8,0-3.3,1.5-3.3,3.3s1.5,3.3,3.3,3.3h190.3
		c1.8,0,3.3-1.5,3.3-3.3s-1.5-3.3-3.3-3.3H184.5z"/>
	<path id="bf808dfd-2bb2-4793-b7c6-d8671bf7e9b4" class="st11" d="M184.5,251.2c-1.8,0-3.3,1.5-3.3,3.3c0,1.8,1.5,3.3,3.3,3.3h190.3
		c1.8,0,3.3-1.5,3.3-3.3c0-1.8-1.5-3.3-3.3-3.3H184.5z"/>
	<path id="e27373f7-fd0b-426a-8828-0829b084b689" class="st11" d="M184.5,277.2c-1.8,0-3.3,1.5-3.3,3.3s1.5,3.3,3.3,3.3h190.3
		c1.8,0,3.3-1.5,3.3-3.3s-1.5-3.3-3.3-3.3H184.5z"/>
	<path id="b4c6c7b3-e22e-4fba-a4f6-80d19d07dbd3" class="st11" d="M184.5,303.2c-1.8,0-3.3,1.5-3.3,3.3s1.5,3.3,3.3,3.3h190.3
		c1.8,0,3.3-1.5,3.3-3.3s-1.5-3.3-3.3-3.3H184.5z"/>
	<path id="ebf0dc46-a6ad-47cb-a3de-ddb71e9e94e3" class="st11" d="M184.5,329.2c-1.8,0-3.3,1.5-3.3,3.3s1.5,3.3,3.3,3.3h190.3
		c1.8,0,3.3-1.5,3.3-3.3s-1.5-3.3-3.3-3.3H184.5z"/>
	<path class="st7" d="M812.2,337.2H524.1c-4,0-7.3-3.3-7.3-7.3V160.4c0-4,3.3-7.3,7.3-7.3h288.1c4,0,7.3,3.3,7.3,7.3v169.5
		C819.5,333.9,816.2,337.2,812.2,337.2z"/>
	<path class="st9" d="M850.1,375.9H562c-4,0-7.3-3.3-7.3-7.3V199.2c0-4,3.3-7.3,7.3-7.3h288.1c4,0,7.3,3.3,7.3,7.3v169.5
		C857.4,372.7,854.1,375.9,850.1,375.9z"/>
	<path class="st6" d="M850.1,378.4H562c-5.4,0-9.7-4.4-9.7-9.7V199.2c0-5.4,4.4-9.7,9.7-9.7h288.1c5.4,0,9.7,4.4,9.7,9.7v169.5
		C859.9,374,855.5,378.4,850.1,378.4z M562,194.4c-2.6,0-4.8,2.1-4.8,4.8v169.5c0,2.6,2.1,4.8,4.8,4.8h288.1c2.6,0,4.8-2.1,4.8-4.8
		V199.2c0-2.6-2.1-4.8-4.8-4.8L562,194.4z"/>
	<circle class="st12" cx="705.7" cy="306.5" r="25"/>
	<path class="st10" d="M753.9,282.4c-6.1-6.5-16.3-6.8-22.8-0.7c-0.1,0.1-0.2,0.2-0.3,0.3l-81.1,81.1c-10.4,10.4-21.2-5.5-28.2-12
		c-16.7-16.5-34.7,14.4-45.9,23.3h260.6v-3.3L753.9,282.4z"/>
	<path class="st13" d="M432.8,380.7l-4.4-60.8l7.9-56.9l-22.4-1.5l-4.4,62.9l12.5,59.1c-2.8,3.9-2,9.4,2,12.3c3.9,2.8,9.4,2,12.3-2
		c2.8-3.9,2-9.4-2-12.3C433.8,381.2,433.3,380.9,432.8,380.7L432.8,380.7z"/>
	<path class="st14" d="M411,269.7l5.3-22.7c2.2-9.4,11.6-15.3,21-13.1c8.7,2,14.4,10.2,13.4,19l-2.9,25.7L411,269.7z"/>
	<polygon class="st13" points="452.4,578.6 463,578.6 468,538 452.4,538 	"/>
	<path class="st3" d="M449.7,575.2l20.8,0h0c7.3,0,13.2,5.9,13.2,13.2v0.4l-34,0L449.7,575.2z"/>
	<polygon class="st13" points="505,578.3 515.1,575.4 508.7,534.9 493.8,539.2 	"/>
	<path class="st3" d="M501.4,575.7l20-5.7l0,0c7-2,14.4,2.1,16.4,9.1l0.1,0.4l-32.7,9.4L501.4,575.7z"/>
	<path class="st3" d="M446.7,563.9l4.9-123.2L438.9,385c-17.1-28.7,1.4-74.6,1.5-75l0.1-0.2l0.2,0l44.8-6.1l0.6,1.4
		c17.5,40.1,22.4,84.6,13.9,127.5l-4.7,23.9l23.1,93.1l-21.8,10.9l-16.7-43.4l-11.3,44.4L446.7,563.9z"/>
	<path class="st14" d="M434.5,321.3l-14.6-42.9c-9.1-16-3.3-30.2,3.1-39.3c7-9.8,7.4-15.3,7.5-15.4l0.1,0l19.2-0.6l17.8,18.1
		c1.1-0.4,10.6,22.8,9.8,24l12.4,40.2L434.5,321.3z"/>
	<path class="st13" d="M553,328.8l-48.2-37.3l-37.2-43.8l-16,15.7l43.9,45.2l52.4,30.2c1,4.7,5.7,7.8,10.5,6.7
		c4.7-1,7.8-5.7,6.7-10.5c-1-4.7-5.7-7.8-10.5-6.7C554,328.4,553.5,328.5,553,328.8L553,328.8z"/>
	<path class="st14" d="M447,279.1l-13.4-19.1c-5.6-7.9-3.7-18.8,4.2-24.4c7.3-5.1,17.2-4,23.1,2.7l17.2,19.3L447,279.1z"/>
	<circle class="st13" cx="437.9" cy="195" r="22.8"/>
	<path class="st3" d="M461.1,183.5h-36.2v-15.8c8-3.2,15.7-5.8,20.4,0C454,167.7,461.1,174.7,461.1,183.5L461.1,183.5z"/>
	<path class="st3" d="M429.9,163.9c-33.2-0.9-26.9,53.8-26.9,53.8s6.3,0.8,9.1,1.3l3.5-1.9l3.7,2.4c1.7,0,3.5,0,5.4-0.1l1.7-3.5
		l3.8,3.4c6.9,0,25.7,0.2,25.7,0.2S467.1,164.9,429.9,163.9z"/>
	<path class="st14" d="M698.7,589.5h-381c-0.6,0-1-0.4-1-1s0.4-1,1-1h381c0.6,0,1,0.4,1,1S699.3,589.5,698.7,589.5z"/>
</g>
</svg>
