<?xml version="1.0" encoding="utf-8"?>
<!-- Generator: Adobe Illustrator 23.1.0, SVG Export Plug-In . SVG Version: 6.00 Build 0)  -->
<svg version="1.1" id="ab47acfe-844d-4101-aa7b-df38aa50dbe4"
	 xmlns="http://www.w3.org/2000/svg" xmlns:xlink="http://www.w3.org/1999/xlink" x="0px" y="0px" viewBox="0 0 971.1 628.4"
	 style="enable-background:new 0 0 971.1 628.4;" xml:space="preserve">
<style type="text/css">
	.st0{fill:#CACACA;}
	.st1{fill:#F2F2F2;}
	.st2{fill:#E6E6E6;}
	.st3{fill:#2F2E41;}
	.st4{fill:#FFB8B8;}
	.st5{fill:#0D6EFD;}
	.st6{fill:#3F3D56;}
	.st7{fill:#FFFFFF;}
	.st8{fill:#E4E4E4;}
	.st9{fill:#6C63FF;}
	.st10{fill:#FFB6B6;}
	.st11{fill:#F0F0F0;}
</style>
<g>
	<rect x="415.1" y="62.7" class="st7" width="514.5" height="334.3"/>
	<path class="st8" d="M930.6,398H414.1V61.7h516.5V398z M416.1,396h512.5V63.7H416.1V396z"/>
	<path class="st6" d="M640,95.4c15.1,0.3,15.1,22.7,0,23C624.9,118.1,624.9,95.7,640,95.4z"/>
	<path class="st9" d="M672.4,95.4c15.1,0.3,15.1,22.7,0,23C657.3,118.1,657.3,95.7,672.4,95.4z"/>
	<path class="st0" d="M704.7,95.4c15.1,0.3,15.1,22.7,0,23C689.6,118.1,689.6,95.7,704.7,95.4z"/>
	<rect x="504" y="183.4" class="st0" width="102.9" height="1.2"/>
	<path class="st0" d="M841.4,364.3H699.8V232.1h141.6V364.3z M701.1,363.1h139.1V233.3H701.1L701.1,363.1z"/>
	
		<rect x="770" y="202.2" transform="matrix(0.6823 -0.7311 0.7311 0.6823 26.8053 658.0813)" class="st0" width="1.2" height="191.9"/>
	
		<rect x="674.6" y="297.6" transform="matrix(0.7311 -0.6823 0.6823 0.7311 3.7677 605.9557)" class="st0" width="191.9" height="1.2"/>
	<path class="st0" d="M841.4,166h-338v-23.1h338V166z M504.6,164.7h335.5v-20.6H504.6V164.7z"/>
	<path class="st0" d="M628.4,268h-124v-23.1h124V268z M505.6,266.7h121.5v-20.6H505.6V266.7z"/>
	<path class="st0" d="M628.4,307h-124v-23.1h124V307z M505.6,305.7h121.5v-20.6H505.6V305.7z"/>
	<path class="st0" d="M628.4,346h-124v-23.1h124V346z M505.6,344.7h121.5v-20.6H505.6V344.7z"/>
	<path class="st9" d="M536.8,212h-33.3c2.6-10.3,2.3-21.5,0-33.3h33.3C532.2,189.4,532.1,201.5,536.8,212z"/>
	<rect x="508.6" y="185.8" class="st7" width="20.2" height="4"/>
	<rect x="508.6" y="193.9" class="st7" width="20.2" height="4"/>
	<rect x="508.6" y="202" class="st7" width="20.2" height="4"/>
	<path class="st9" d="M787.3,262.3h-33.3c2.6-10.3,2.3-21.5,0-33.3h33.3C782.7,239.6,782.7,251.7,787.3,262.3z"/>
	<rect x="759.1" y="236.1" class="st7" width="20.2" height="4"/>
	<rect x="759.1" y="244.1" class="st7" width="20.2" height="4"/>
	<rect x="759.1" y="252.2" class="st7" width="20.2" height="4"/>
	<path class="st9" d="M830.1,191h-33.3c2.6-10.3,2.3-21.5,0-33.3h33.3C825.5,168.3,825.5,180.4,830.1,191z"/>
	<rect x="801.9" y="164.8" class="st7" width="20.2" height="4"/>
	<rect x="801.9" y="172.8" class="st7" width="20.2" height="4"/>
	<rect x="801.9" y="180.9" class="st7" width="20.2" height="4"/>
	<path class="st3" d="M247,215.2h-57v-30.5c0-15.7,12.8-28.5,28.5-28.5s28.5,12.8,28.5,28.5V215.2z"/>
	<polygon class="st10" points="272.5,554.5 284.7,554.5 290.6,507.2 272.5,507.2 	"/>
	<path class="st3" d="M269.3,550.5l24.1,0h0c8.5,0,15.4,6.9,15.4,15.4v0.5l-39.5,0L269.3,550.5z"/>
	<polygon class="st10" points="125.9,538.1 136.6,544.2 164.9,505.9 149.2,497 	"/>
	<path class="st3" d="M125.2,533.1l21,11.9l0,0c7.4,4.2,10,13.6,5.8,21l-0.2,0.4L117.3,547L125.2,533.1z"/>
	<path class="st3" d="M204.3,341.8l-0.9,4.7c0,0-2.8,2.8-1.4,4.3s0.9,8,0.9,8c-0.8,12.1-16.6,79.9-19.4,93.2
		c0,0-21.8,14.2-38.8,42.1s-17.5,35-17.5,35l18.9,8l47.3-57.2c0,0,13.2-8,18-15.1s34.1-80.4,34.1-80.4L262,461
		c0,0-0.9,27.9,3.3,45.9c2.6,11.3,4.2,22.9,4.7,34.5l22.2-2.4c0,0-1.4-67.2-3.8-74.3c0,0,9.9-81.8-9.9-114.5l-16-42.7l-15.7-6
		L204.3,341.8z"/>
	<path class="st4" d="M218.2,163.6c29.8,0.5,29.8,44.9,0,45.4C188.4,208.5,188.4,164.1,218.2,163.6z"/>
	<path class="st3" d="M241.2,185.1h-5.1l-1.4-3.5l0.7,3.5h-27.7l0.9-7.2l-6.7,7.2h-6.7v-3.9c0-12.7,10.3-23.1,23-23.1
		s23.1,10.3,23.1,23c0,0,0,0.1,0,0.1V185.1z"/>
	<path class="st8" d="M249,222.3l-56.4,0.5l11.9,120.9c0,0,66-3.5,66-23.6l-6.2-17.9L249,222.3z"/>
	<path id="a921541c-c001-4299-8f7c-75c007cac120" class="st7" d="M354,433.3L157.3,474c-2,0.4-4.3-2.6-5.2-6.7l-20.7-99.8
		c-0.9-4.1,0.1-7.8,2.1-8.2l196.6-40.7c2-0.4,4.3,2.6,5.2,6.7l20.7,99.8C356.9,429.2,356,432.9,354,433.3z"/>
	<g id="a63949a2-a794-48d0-a35a-8c12e4616a27">
		<circle id="bdfdee77-367c-420e-9119-e33862087a46" class="st11" cx="205" cy="385.7" r="17.6"/>
		<path id="f21c0c69-10dc-4e04-b124-1a0d4dcadc3b" class="st8" d="M269.9,427.5L185.6,445c-0.1,0-0.2,0-0.3,0l25.6-77.4
			c0.5-1.5,2.1-2.3,3.6-1.8c0.5,0.2,0.9,0.4,1.3,0.8l36.4,40.8l1.7,2L269.9,427.5z"/>
		<path id="a63814cd-9c0a-4ddf-af41-edb1ac5f3322" class="st8" d="M316.9,417.8l-73,15.1l9.9-23.5l0.7-1.7l12.9-30.6
			c0.9-1.9,3.2-2.6,5.1-1.7c0.1,0.1,0.2,0.1,0.4,0.2c0.1,0.1,0.2,0.2,0.3,0.3L316.9,417.8z"/>
	</g>
	<path id="e00a8b63-2679-46d7-8caf-93b6261f662d" class="st0" d="M354,433.3L157.3,474c-2,0.4-4.3-2.6-5.2-6.7l-20.7-99.8
		c-0.9-4.1,0.1-7.8,2.1-8.2l196.6-40.7c2-0.4,4.3,2.6,5.2,6.7l20.7,99.8C356.9,429.2,356,432.9,354,433.3z M134.2,362.3
		c-1.2,0.2-1.8,2.5-1.3,4.9l20.7,99.8c0.5,2.5,1.9,4.3,3.1,4l196.6-40.7c1.2-0.2,1.8-2.5,1.3-4.9l-20.7-99.8c-0.5-2.5-1.9-4.3-3.1-4
		L134.2,362.3z"/>
	<path class="st10" d="M295.8,340.9c-4.7-2.2-6.7-7.8-4.5-12.5c0.2-0.5,0.5-1,0.8-1.4l-11.4-18.1l9.3-9.6l15.8,25.8
		c4,3.3,4.7,9.2,1.4,13.3C304.4,341.7,299.7,342.8,295.8,340.9L295.8,340.9z"/>
	<path class="st8" d="M240.3,227.1l8.2-5.4c0,0,6.3,1.4,13,14.3s33.8,70.7,33.8,70.7L284.2,318l-29.7-45.3L240.3,227.1z"/>
	<path class="st10" d="M190.2,355.4c3.3-4,2.7-9.9-1.3-13.2c-0.4-0.3-0.9-0.7-1.4-0.9l2.5-21.3l-12.6-4.6l-3,30.1
		c-2.2,4.7-0.2,10.3,4.5,12.6C182.7,359.8,187.4,358.7,190.2,355.4L190.2,355.4z"/>
	<path class="st8" d="M200,233.2l-7.4-10.4c0,0-5.1-1.1-11.1,5.9s-9.5,94.5-9.5,94.5l22,5l13-62L200,233.2z"/>
	<path class="st0" d="M422.4,566.7h-381c-0.6,0-1-0.4-1-1s0.4-1,1-1h381c0.6,0,1,0.4,1,1S423,566.7,422.4,566.7z"/>
	<path class="st9" d="M177.3,385.7l-32.5,6.9c0.4-10.6-2.3-21.5-6.9-32.5l32.5-6.9C168,364.5,170.5,376.3,177.3,385.7z"/>
	
		<rect x="144.4" y="363.8" transform="matrix(0.9782 -0.2077 0.2077 0.9782 -72.6087 40.0651)" class="st7" width="20.2" height="4"/>
	
		<rect x="146.1" y="371.7" transform="matrix(0.9782 -0.2077 0.2077 0.9782 -74.2106 40.585)" class="st7" width="20.2" height="4"/>
	
		<rect x="147.8" y="379.6" transform="matrix(0.9782 -0.2077 0.2077 0.9782 -75.8124 41.1049)" class="st7" width="20.2" height="4"/>
</g>
</svg>
